<svg width="47" height="47" viewBox="0 0 47 47" fill="none" xmlns="http://www.w3.org/2000/svg">
<path d="M46.2149 23.1075C46.2149 35.8694 35.8694 46.2149 23.1075 46.2149C10.3456 46.2149 0 35.8694 0 23.1075C0 10.3456 10.3456 0 23.1075 0C35.8694 0 46.2149 10.3456 46.2149 23.1075ZM2.58309 23.1075C2.58309 34.4428 11.7722 43.6319 23.1075 43.6319C34.4428 43.6319 43.6319 34.4428 43.6319 23.1075C43.6319 11.7722 34.4428 2.58309 23.1075 2.58309C11.7722 2.58309 2.58309 11.7722 2.58309 23.1075Z" fill="#D9D9D9"/>
<path d="M46.2149 23.1075C46.2149 26.9574 45.253 30.7463 43.4166 34.13C41.5801 37.5136 38.9274 40.3849 35.6993 42.4828C32.4712 44.5807 28.7701 45.8388 24.9322 46.1428C21.0943 46.4468 17.2413 45.7871 13.7231 44.2236C10.205 42.66 7.13327 40.2423 4.787 37.1899C2.44074 34.1376 0.894301 30.5474 0.288177 26.7455C-0.317946 22.9436 0.035456 19.0505 1.31628 15.4199C2.5971 11.7893 4.76475 8.53621 7.6223 5.95624L9.35332 7.87351C6.81521 10.1651 4.88987 13.0545 3.75223 16.2792C2.61458 19.504 2.30069 22.9619 2.83905 26.3388C3.37742 29.7157 4.75099 32.9046 6.83497 35.6157C8.91896 38.3269 11.6473 40.4743 14.7722 41.8631C17.897 43.2518 21.3193 43.8378 24.7282 43.5678C28.1371 43.2977 31.4244 42.1803 34.2917 40.3169C37.1589 38.4535 39.5151 35.9032 41.1463 32.8978C42.7775 29.8924 43.6319 26.527 43.6319 23.1075H46.2149Z" fill="#91CF00"/>
<g filter="url(#filter0_d_2926_2442)">
<path fill-rule="evenodd" clip-rule="evenodd" d="M20.06 17.94L22.3 15.7C22.7 15.3 23.3 15.3 23.7 15.7C23.9 15.9 24 16.1 24 16.4V21.879L26.879 24.757C27.1549 24.2124 27.2991 23.6105 27.3 23C27.3 22 26.9 21 26.2 20.3L26.1 20.2L27.2 19.1L27.3 19.2C28.3 20.2 28.9 21.6 28.9 23C28.8911 24.0311 28.5871 25.0381 28.024 25.902L28.942 26.821C29.73 25.703 30.1 24.413 30.1 23C30.1 21.2 29.4 19.6 28.2 18.3L28.1 18.2L29.2 17.1L29.3 17.2C30.8 18.7 31.7 20.8 31.7 23C31.7 24.82 31.152 26.503 30.057 27.936L33.092 30.971L32.032 32.031L15.06 15.061L16.12 14L20.06 17.94ZM24 26.12V29.6C24 30.2 23.6 30.6 23 30.6C22.7 30.6 22.5 30.5 22.3 30.3L18.5 26.5H14C13.4 26.5 13 26.1 13 25.5V20.5C13 19.9 13.4 19.5 14 19.5H17.379L24 26.121V26.12Z" fill="black"/>
</g>
<defs>
<filter id="filter0_d_2926_2442" x="7.9084" y="9.4542" width="30.1832" height="30.1832" filterUnits="userSpaceOnUse" color-interpolation-filters="sRGB">
<feFlood flood-opacity="0" result="BackgroundImageFix"/>
<feColorMatrix in="SourceAlpha" type="matrix" values="0 0 0 0 0 0 0 0 0 0 0 0 0 0 0 0 0 0 127 0" result="hardAlpha"/>
<feOffset dy="1.5458"/>
<feGaussianBlur stdDeviation="1.5458"/>
<feComposite in2="hardAlpha" operator="out"/>
<feColorMatrix type="matrix" values="0 0 0 0 0 0 0 0 0 0 0 0 0 0 0 0 0 0 0.25 0"/>
<feBlend mode="normal" in2="BackgroundImageFix" result="effect1_dropShadow_2926_2442"/>
<feBlend mode="normal" in="SourceGraphic" in2="effect1_dropShadow_2926_2442" result="shape"/>
</filter>
</defs>
</svg>
