<svg width="47" height="47" viewBox="0 0 47 47" fill="none" xmlns="http://www.w3.org/2000/svg">
<path d="M46.2149 23.1075C46.2149 35.8694 35.8694 46.2149 23.1075 46.2149C10.3456 46.2149 0 35.8694 0 23.1075C0 10.3456 10.3456 0 23.1075 0C35.8694 0 46.2149 10.3456 46.2149 23.1075ZM2.58309 23.1075C2.58309 34.4428 11.7722 43.6318 23.1075 43.6318C34.4428 43.6318 43.6318 34.4428 43.6318 23.1075C43.6318 11.7722 34.4428 2.58309 23.1075 2.58309C11.7722 2.58309 2.58309 11.7722 2.58309 23.1075Z" fill="#D9D9D9"/>
<path d="M46.2149 23.1075C46.2149 26.9574 45.253 30.7463 43.4166 34.13C41.5801 37.5136 38.9274 40.3849 35.6993 42.4828C32.4712 44.5807 28.7701 45.8388 24.9322 46.1428C21.0943 46.4468 17.2413 45.7871 13.7231 44.2236C10.205 42.66 7.13327 40.2423 4.787 37.1899C2.44074 34.1376 0.894301 30.5474 0.288177 26.7455C-0.317946 22.9436 0.035456 19.0505 1.31628 15.4199C2.5971 11.7893 4.76475 8.53621 7.6223 5.95624L9.35332 7.87351C6.81521 10.1651 4.88987 13.0545 3.75223 16.2792C2.61458 19.504 2.30069 22.9619 2.83905 26.3388C3.37742 29.7157 4.75099 32.9046 6.83497 35.6157C8.91896 38.3269 11.6473 40.4743 14.7722 41.8631C17.897 43.2518 21.3193 43.8378 24.7282 43.5678C28.1371 43.2977 31.4244 42.1803 34.2917 40.3169C37.1589 38.4535 39.5151 35.9032 41.1463 32.8978C42.7775 29.8924 43.6318 26.527 43.6318 23.1075H46.2149Z" fill="#91CF00"/>
<g filter="url(#filter0_d_2892_33)">
<mask id="mask0_2892_33" style="mask-type:luminance" maskUnits="userSpaceOnUse" x="13" y="13" width="19" height="20">
<path d="M13.2852 13.8672H31.7711V32.3532H13.2852V13.8672Z" fill="white"/>
</mask>
<g mask="url(#mask0_2892_33)">
<path fill-rule="evenodd" clip-rule="evenodd" d="M15.0182 26.5755H18.4843L21.4721 29.5633C21.7006 29.7918 21.9917 29.9475 22.3087 30.0105C22.6256 30.0736 22.9542 30.0412 23.2527 29.9176C23.5513 29.7939 23.8065 29.5844 23.986 29.3157C24.1655 29.047 24.2613 28.7311 24.2612 28.4079V17.8108C24.2613 17.4876 24.1655 17.1717 23.986 16.903C23.8065 16.6343 23.5513 16.4248 23.2527 16.3011C22.9542 16.1775 22.6256 16.1451 22.3087 16.2082C21.9917 16.2712 21.7006 16.4269 21.4721 16.6554L18.4843 19.6432H15.0182C14.5586 19.6432 14.1178 19.8258 13.7928 20.1508C13.4677 20.4758 13.2852 20.9167 13.2852 21.3763V24.8424C13.2852 25.302 13.4677 25.7429 13.7928 26.0679C14.1178 26.3929 14.5586 26.5755 15.0182 26.5755ZM29.6476 29.0052C29.3414 29.3738 28.7891 29.3715 28.4506 29.0329C28.1132 28.6944 28.1178 28.1479 28.4148 27.7736C29.4687 26.4476 30.041 24.8031 30.0381 23.1093C30.0407 21.416 29.4684 19.7719 28.4148 18.4463C28.1178 18.0708 28.1132 17.5254 28.4517 17.1869C28.7891 16.8484 29.3414 16.8461 29.6476 17.2146C31.0227 18.8709 31.7741 20.9566 31.7711 23.1093C31.7711 25.3508 30.9739 27.405 29.6476 29.0052ZM27.1774 26.5385C26.8931 26.9232 26.3386 26.9198 26 26.5812C25.6615 26.2439 25.6719 25.6985 25.9307 25.2965C26.3497 24.644 26.5723 23.8848 26.5719 23.1093C26.5719 22.3041 26.3363 21.5542 25.9307 20.9234C25.6719 20.5213 25.6615 19.976 26 19.6375C26.3386 19.2989 26.8931 19.2955 27.1785 19.6814C27.8868 20.6403 28.305 21.8257 28.305 23.1093C28.3067 24.3438 27.9114 25.546 27.1774 26.5385Z" fill="#2C2C2A"/>
</g>
</g>
<defs>
<filter id="filter0_d_2892_33" x="10.1936" y="12.3194" width="24.6676" height="24.6695" filterUnits="userSpaceOnUse" color-interpolation-filters="sRGB">
<feFlood flood-opacity="0" result="BackgroundImageFix"/>
<feColorMatrix in="SourceAlpha" type="matrix" values="0 0 0 0 0 0 0 0 0 0 0 0 0 0 0 0 0 0 127 0" result="hardAlpha"/>
<feOffset dy="1.5458"/>
<feGaussianBlur stdDeviation="1.5458"/>
<feComposite in2="hardAlpha" operator="out"/>
<feColorMatrix type="matrix" values="0 0 0 0 0 0 0 0 0 0 0 0 0 0 0 0 0 0 0.25 0"/>
<feBlend mode="normal" in2="BackgroundImageFix" result="effect1_dropShadow_2892_33"/>
<feBlend mode="normal" in="SourceGraphic" in2="effect1_dropShadow_2892_33" result="shape"/>
</filter>
</defs>
</svg>
