<svg width="26" height="97" viewBox="0 0 26 97" fill="none" xmlns="http://www.w3.org/2000/svg">
<path d="M2.03685 0.628841L1.2594 -0.000109016L0.00150081 1.55478L0.778946 2.18373L1.4079 1.40629L2.03685 0.628841ZM9.30595 95.8964C9.39615 96.4413 9.91098 96.8099 10.4558 96.7197L19.335 95.2497C19.8799 95.1595 20.2484 94.6447 20.1582 94.0998C20.068 93.5549 19.5532 93.1864 19.0083 93.2766L11.1158 94.5832L9.80915 86.6906C9.71895 86.1457 9.20412 85.7772 8.65925 85.8674C8.11438 85.9576 7.7458 86.4724 7.83601 87.0173L9.30595 95.8964ZM1.4079 1.40629L0.778946 2.18373C18.3079 16.3646 37.188 56.448 9.47941 95.151L10.2925 95.7331L11.1056 96.3152C39.5743 56.5505 20.1822 15.3083 2.03685 0.628841L1.4079 1.40629Z" fill="white"/>
</svg>
