<svg width="81" height="42" viewBox="0 0 81 42" fill="none" xmlns="http://www.w3.org/2000/svg">
<path d="M0.00372581 13.5311C-0.0469169 14.0979 0.371583 14.5986 0.938474 14.6492L10.1765 15.4745C10.7434 15.5251 11.244 15.1066 11.2946 14.5398C11.3453 13.9729 10.9268 13.4723 10.3599 13.4216L2.14832 12.688L2.88191 4.47644C2.93256 3.90955 2.51406 3.40894 1.94717 3.35829C1.38028 3.30765 0.879665 3.72615 0.82902 4.29304L0.00372581 13.5311ZM78.4975 40.6214L78.4975 41.6519L80.5586 41.652L80.5586 40.6215L79.5281 40.6214L78.4975 40.6214ZM1.03017 13.6228L1.69114 14.4134C18.1304 0.670542 37.3484 -0.538234 52.4533 5.57672C67.5955 11.7068 78.4979 25.1335 78.4975 40.6214L79.5281 40.6214L80.5586 40.6215C80.559 24.1087 68.9599 10.0356 53.2267 3.66626C37.4561 -2.71821 17.4248 -1.42601 0.369207 12.8321L1.03017 13.6228Z" fill="black"/>
</svg>
