<svg width="29" height="293" viewBox="0 0 29 293" fill="none" xmlns="http://www.w3.org/2000/svg">
<path d="M0.672058 0.0313097L0.0622546 -0.000123441L-0.000611722 1.21948L0.609192 1.25092L0.640625 0.641113L0.672058 0.0313097ZM18.1399 291.991C18.333 292.267 18.7136 292.335 18.9902 292.142L23.4962 288.996C23.7728 288.803 23.8404 288.422 23.6474 288.146C23.4544 287.869 23.0737 287.802 22.7972 287.995L18.7918 290.791L15.9955 286.785C15.8025 286.509 15.4218 286.441 15.1453 286.634C14.8688 286.827 14.8011 287.208 14.9942 287.485L18.1399 291.991ZM0.640625 0.641113L0.609192 1.25092C3.9496 1.4231 7.1156 4.41178 10.0282 10.1676C12.9158 15.8741 15.4408 24.0828 17.5996 34.2247C21.9152 54.4987 24.7377 82.3503 26.1362 112.991C28.9331 174.275 26.0288 246.594 18.0394 291.534L18.6406 291.641L19.2418 291.748C27.2525 246.688 30.1555 174.271 27.3561 112.936C25.9564 82.2676 23.1299 54.3397 18.7941 33.9705C16.6272 23.7909 14.076 15.4621 11.1178 9.6162C8.1846 3.81955 4.73533 0.240757 0.672058 0.0313097L0.640625 0.641113Z" fill="white"/>
</svg>
